<?xml version="1.0" encoding="utf-8"?>
<!-- Generator: Adobe Illustrator 23.0.3, SVG Export Plug-In . SVG Version: 6.00 Build 0)  -->
<svg version="1.1" id="圖層_1" xmlns="http://www.w3.org/2000/svg" xmlns:xlink="http://www.w3.org/1999/xlink" x="0px" y="0px"
	 viewBox="0 0 200 50" style="enable-background:new 0 0 200 50;" xml:space="preserve">
<style type="text/css">
	.st0{fill:#FFFFFF;}
</style>
<g>
	<g>
		<path class="st0" d="M23.8,19.1L10.6,39.3H6.2V14.4l-0.1-2c-0.1-0.9-0.3-1.5-0.6-1.8C5.3,10.2,4.7,10,3.9,9.9L1.6,9.7V9.1h17.7
			v0.7l-0.9,0.1c-0.8,0.1-1.4,0.3-1.6,0.6c-0.3,0.3-0.4,1-0.5,1.9l-0.1,2V29l7.6-11.6v-3.1l-0.1-2c-0.1-0.8-0.2-1.4-0.4-1.8
			c-0.2-0.4-0.8-0.7-1.8-0.8l-0.8,0V9.1h17.6v0.7l-2.2,0.1c-0.9,0.1-1.4,0.3-1.7,0.6c-0.3,0.3-0.5,0.9-0.6,1.9l-0.1,2v14.8
			c0.6-1,1.2-1.9,1.7-2.7c0.5-0.8,1.8-2.7,3.7-5.5c1.9-2.8,3.5-5.1,4.7-6.8c1.3-1.7,2.6-3,4-4c1.4-1,3.1-1.5,5.2-1.5
			c1.8,0,3.2,0.5,4.4,1.5c1.2,1,1.8,2.4,1.8,4c0,1.6-0.5,3-1.6,4s-2.4,1.6-4,1.6c-1.5,0-2.8-0.4-3.8-1.3c-1-0.9-1.6-2-1.6-3.5
			c0-0.5,0.1-0.9,0.2-1.3c0.1-0.3,0.3-0.7,0.5-1.1c0.2-0.4,0.5-0.8,0.9-1.2c0.4-0.4,0.6-0.8,0.6-1c0-0.2-0.2-0.4-0.5-0.4
			c-0.2,0-0.6,0.1-0.9,0.3c-0.4,0.2-0.9,0.5-1.5,1c-0.6,0.5-1.3,1.2-2,2.1c-0.7,0.9-1.5,1.9-2.4,3.2c-0.9,1.2-2.4,3.5-4.5,6.7
			c-2.1,3.3-4.1,6.4-5.9,9.2c-1.8,2.8-3.2,5.1-4.2,6.7h-4.8V19.1z"/>
		<path class="st0" d="M62.6,30c-0.2,0.5-0.3,1.2-0.5,2c-0.1,0.8-0.2,1.5-0.2,2.1c0,1.5,0.2,2.6,0.6,3.3c0.4,0.6,1.1,0.9,1.9,0.9
			c0.6,0,1.2-0.1,1.7-0.2c0.5-0.2,1.1-0.4,1.7-0.8c0.7-0.4,1.4-0.9,2.1-1.7c0.7-0.7,1.3-1.5,1.8-2.2l0.6,0.4c-1.2,1.6-2.5,3-4.1,4.1
			s-3.5,1.7-5.7,1.7c-2,0-3.9-0.6-5.7-1.8c-1.8-1.2-2.7-3-2.7-5.4c0-3.3,1.5-6.3,4.5-9.1c3-2.7,6.5-4.1,10.6-4.1
			c1.9,0,3.5,0.4,4.7,1.3c1.2,0.9,1.8,1.9,1.8,3c0,2.2-1.3,3.8-3.8,4.9C69.3,29.5,66.2,30,62.6,30z M62.7,29.5
			c1.9-0.2,3.7-1.3,5.2-3.2c1.6-1.9,2.4-3.6,2.4-5.1c0-0.4-0.1-0.7-0.2-0.9c-0.1-0.2-0.4-0.3-0.7-0.3c-0.6,0-1.2,0.3-1.8,1
			c-0.6,0.7-1.3,1.6-1.9,2.8c-0.7,1.2-1.3,2.3-1.8,3.2C63.4,27.8,63,28.7,62.7,29.5z"/>
		<path class="st0" d="M75.8,25.9c1.5-2.8,2.9-4.6,4-5.4c1.1-0.9,2.4-1.3,3.7-1.3c1.2,0,2.3,0.4,3.2,1.2c0.9,0.8,1.3,2,1.3,3.7
			c0,0.7-0.2,1.5-0.5,2.4c-0.3,0.9-0.8,2-1.4,3.2c-0.6,1.2-1.4,2.7-2.4,4.5c-1,1.8-1.5,3-1.5,3.5c0,0.2,0.1,0.4,0.2,0.6
			c0.1,0.1,0.3,0.2,0.6,0.2c0.3,0,0.7-0.2,1.2-0.5c0.5-0.3,1-0.8,1.4-1.4c0.5-0.6,1-1.2,1.5-2c0.5-0.8,0.9-1.4,1.3-2l0.5,0.3
			c-1.5,2.4-2.7,4.2-3.7,5.2c-1,1.1-2.5,1.6-4.6,1.6c-1.5,0-2.6-0.4-3.4-1.3c-0.8-0.9-1.2-2-1.2-3.3c0-0.9,0.1-1.7,0.4-2.4
			c0.3-0.7,0.8-1.9,1.7-3.5c0.8-1.7,1.6-3.1,2.2-4.4c0.6-1.3,1-2.2,1.2-2.6c0.2-0.5,0.3-0.8,0.3-1c0-0.2,0-0.3-0.1-0.4
			c-0.1-0.1-0.2-0.1-0.4-0.1c-0.2,0-0.5,0.2-1,0.5s-1,0.9-1.8,1.8c-0.7,0.9-1.5,2-2.2,3.4L75.8,25.9z M84.2,12.5
			c0-1.1,0.4-2,1.2-2.8C86.1,9,87,8.6,88.1,8.6c1.1,0,2,0.4,2.8,1.1c0.8,0.7,1.2,1.6,1.2,2.8c0,1.1-0.4,2-1.2,2.7
			c-0.8,0.7-1.7,1.1-2.8,1.1c-1.1,0-2-0.4-2.8-1.1C84.6,14.5,84.2,13.6,84.2,12.5z"/>
		<path class="st0" d="M109.9,23.1c1.4,0,2.6,0.3,3.6,1c1,0.7,1.5,1.6,1.5,2.6c0,0.8-0.2,1.4-0.7,2c-0.5,0.5-1.1,0.8-1.8,0.8
			c-0.6,0-1.2-0.3-1.8-0.8c-0.6-0.5-0.8-1.1-0.8-1.8c0-0.4,0.1-0.8,0.3-1.1c0.2-0.3,0.4-0.5,0.7-0.7s0.6-0.2,1-0.3
			c0.4-0.1,0.6-0.2,0.6-0.4c0-0.2-0.2-0.4-0.5-0.6c-0.4-0.2-0.9-0.3-1.5-0.3c-0.9,0-1.6,0.2-2.2,0.6s-0.9,1-0.9,1.7
			c0,0.5,0.1,1,0.3,1.3c0.2,0.3,0.6,0.7,1.1,1.2l2.7,2.3c0.6,0.6,1,1.1,1.3,1.7c0.3,0.6,0.4,1.2,0.4,2c0,1.6-0.8,2.9-2.3,3.8
			c-1.5,0.9-3.2,1.4-5.1,1.4c-1.7,0-3.2-0.4-4.5-1.3c-1.3-0.9-2-2-2-3.3c0-0.7,0.3-1.4,0.8-1.9s1.1-0.8,1.9-0.8
			c0.6,0,1.2,0.3,1.8,0.8c0.6,0.5,0.8,1.1,0.8,1.9c0,0.5-0.1,1-0.4,1.3c-0.3,0.4-0.6,0.6-1,0.7c-0.4,0.1-0.6,0.1-0.9,0.2
			c-0.2,0.1-0.3,0.2-0.3,0.4c0,0.3,0.3,0.6,0.9,1s1.3,0.5,2.2,0.5c0.8,0,1.4-0.2,2-0.6c0.6-0.4,0.8-1,0.8-1.6c0-0.6-0.1-1-0.3-1.3
			s-0.5-0.6-0.9-1c-0.4-0.4-0.9-0.8-1.5-1.3c-0.6-0.5-1.1-1-1.4-1.4s-0.6-0.8-0.7-1.2c-0.2-0.4-0.3-0.9-0.3-1.5c0-1.5,0.7-2.8,2-4.1
			C105.8,23.7,107.6,23.1,109.9,23.1z"/>
		<path class="st0" d="M119.6,39.5c-1,0-1.9-0.3-2.7-1c-0.7-0.6-1.1-1.6-1.1-2.9c0-0.6,0.1-1.3,0.4-2c0.3-0.7,0.6-1.6,1.1-2.6
			c0.5-1,1.1-2.2,1.9-3.7s1.2-2.4,1.2-2.7c0-0.2,0-0.3-0.1-0.4c-0.1-0.1-0.2-0.1-0.4-0.1c-0.2,0-0.5,0.1-0.9,0.4s-0.7,0.6-1.1,1
			s-0.8,0.9-1.3,1.7c-0.5,0.7-0.9,1.4-1.2,2.1l-0.4-0.2c1.1-1.9,2.1-3.3,3-4.4s2.2-1.6,3.8-1.6c1.1,0,2,0.4,2.6,1.1
			c0.6,0.7,0.9,1.6,0.9,2.6c0,0.9-0.2,1.7-0.5,2.6c-0.3,0.7-0.7,1.4-1,2.1c-0.3,0.7-0.9,1.8-1.7,3.3s-1.2,2.5-1.2,3.1
			c0,0.2,0,0.4,0.1,0.5s0.2,0.2,0.4,0.2c0.5,0,1.1-0.4,1.7-1.1c0.6-0.7,1.1-1.4,1.5-2.1c0.4-0.6,0.8-1.3,1.1-1.9l4.8-10h6.5
			L131.3,36c-0.1,0.3-0.2,0.6-0.4,1s-0.2,0.7-0.2,0.9c0,0.2,0,0.3,0.1,0.3c0.1,0.1,0.2,0.1,0.3,0.1c0.6,0,1.2-0.3,1.8-0.9
			c0.5-0.6,1.1-1.3,1.5-2c0.5-0.7,1-1.6,1.6-2.5l0.4,0.2c-1.2,2.1-2.3,3.6-3.2,4.7c-1,1.1-2.2,1.6-3.8,1.6c-1.1,0-1.9-0.3-2.5-1
			c-0.6-0.7-0.9-1.6-0.9-2.7c0-0.5,0.1-1,0.2-1.4s0.2-0.8,0.3-1.1c-1.2,2.1-2.3,3.7-3.1,4.7S121.1,39.5,119.6,39.5z"/>
		<path class="st0" d="M158.6,23.5c-0.7,1.9-1.5,4-2.4,6.1c-0.9,2.2-1.9,4.7-3.2,7.8c-1.3,3-3,5.4-5.1,7s-4.9,2.5-8.3,2.5
			c-1.3,0-2.5-0.4-3.4-1.1c-0.9-0.7-1.4-1.6-1.4-2.6c0-0.8,0.3-1.5,0.8-2.1c0.6-0.6,1.3-0.9,2.3-0.9c0.8,0,1.6,0.3,2.2,0.8
			c0.6,0.6,0.9,1.2,0.9,2c0,0.7-0.2,1.3-0.7,1.8c-0.5,0.5-1.1,0.7-1.9,0.7c-0.2,0-0.4,0.1-0.4,0.3c0,0.2,0.1,0.3,0.4,0.4
			s0.7,0.2,1.2,0.2c1.2,0,2.2-0.5,3.1-1.5c0.9-1,1.8-2.4,2.5-4.1c0.8-1.7,1.5-3.4,2.3-5.1l-0.1,0c-0.8,1.2-1.6,2.2-2.4,2.8
			c-0.9,0.7-1.9,1-3.2,1c-1.3,0-2.4-0.4-3.3-1.3c-0.9-0.9-1.3-2-1.3-3.4c0-2.6,1.2-5.2,3.5-7.8c2.3-2.6,4.9-3.9,7.9-3.9
			c0.8,0,1.4,0.2,1.9,0.5c0.5,0.3,0.8,0.9,0.8,1.7l0,0.6l1-2.4H158.6z M150.8,25.3c0-0.4-0.1-0.7-0.2-0.8c-0.2-0.2-0.4-0.3-0.7-0.3
			c-0.4,0-0.8,0.3-1.3,1c-0.5,0.7-1.2,1.7-1.9,3.2c-0.8,1.5-1.6,3.4-2.5,5.5c-0.9,2.2-1.3,3.5-1.3,4.1c0,0.2,0,0.4,0.1,0.5
			c0.1,0.1,0.2,0.2,0.4,0.2c0.7,0,1.4-0.3,2-1c0.6-0.7,1.1-1.2,1.3-1.6c0.3-0.4,0.7-1.2,1.3-2.4c0.6-1.2,1.2-2.7,1.9-4.4
			C150.4,27.5,150.8,26.2,150.8,25.3z"/>
		<path class="st0" d="M179.7,23.5L174,36c-0.1,0.1-0.2,0.4-0.3,0.9c-0.2,0.4-0.2,0.7-0.2,0.8c0,0.2,0,0.3,0.1,0.4
			c0.1,0.1,0.2,0.1,0.3,0.1c0.3,0,0.7-0.2,1.3-0.7s1.1-1.1,1.8-1.9c0.6-0.8,1.2-1.7,1.7-2.7l0.4,0.2c-0.6,1.1-1.3,2.2-1.9,3.1
			s-1.5,1.6-2.4,2.3c-1,0.6-2.1,0.9-3.5,0.9c-1.1,0-1.9-0.3-2.5-0.9c-0.6-0.6-0.8-1.5-0.8-2.7c-0.9,1.3-1.7,2.2-2.5,2.8
			c-0.8,0.6-1.8,0.9-3,0.9c-1.3,0-2.4-0.4-3.3-1.3c-0.9-0.8-1.3-2-1.3-3.3c0-2.6,1.2-5.2,3.6-7.8c2.4-2.6,5.1-3.9,8-3.9
			c0.7,0,1.3,0.2,1.9,0.5c0.6,0.3,0.8,0.9,0.8,1.6L172,26l1.2-2.5H179.7z M171.7,25.3c0-0.4-0.1-0.6-0.2-0.8
			c-0.1-0.2-0.4-0.2-0.7-0.2c-0.4,0-0.9,0.3-1.4,1c-0.5,0.7-1.2,1.8-2.1,3.5s-1.7,3.5-2.6,5.5c-0.9,2-1.3,3.3-1.3,3.9
			c0,0.2,0,0.4,0.1,0.5c0.1,0.1,0.2,0.2,0.4,0.2c0.7,0,1.3-0.3,2-1s1.1-1.2,1.4-1.7s0.8-1.3,1.3-2.4c0.5-1.1,1.2-2.6,2-4.4
			C171.3,27.4,171.7,26.1,171.7,25.3z"/>
		<path class="st0" d="M199,26.2c0,1-0.3,1.8-0.9,2.5c-0.6,0.7-1.3,1-2.3,1c-0.8,0-1.5-0.2-2.1-0.7c-0.6-0.5-0.9-1.1-0.9-1.9
			c0-0.4,0.1-0.8,0.3-1.1c0.2-0.3,0.4-0.7,0.6-1.1c0-0.2-0.1-0.3-0.3-0.3c-0.3,0-0.8,0.4-1.3,1.3c-0.6,0.9-1.2,1.9-1.8,3.3l-4.8,10
			h-6.5l5.7-12.6c0.1-0.2,0.2-0.5,0.3-0.8c0.1-0.3,0.1-0.6,0.1-0.8c0-0.2,0-0.3-0.1-0.4c-0.1-0.1-0.2-0.1-0.3-0.1
			c-0.3,0-0.6,0.1-0.9,0.4c-0.4,0.3-0.7,0.6-1,1c-0.3,0.4-0.7,1-1.2,1.8c-0.5,0.8-0.9,1.4-1.2,2l-0.4-0.2c1.4-2.7,2.6-4.4,3.6-5.2
			c1-0.8,2.2-1.2,3.4-1.2c1.1,0,1.8,0.3,2.4,1c0.5,0.7,0.8,1.6,0.8,2.7c0,0.4-0.1,0.9-0.2,1.3c-0.1,0.4-0.2,0.8-0.3,1l0.1,0
			c1-2.1,1.9-3.6,2.7-4.6c0.8-1,1.9-1.5,3.3-1.5c1,0,1.8,0.3,2.3,1C198.7,24.7,199,25.4,199,26.2z"/>
	</g>
</g>
</svg>
